<svg width="1031" height="597" viewBox="0 0 1031 597" fill="none" xmlns="http://www.w3.org/2000/svg">
<rect width="597" height="597" fill="#00A8FF"/>
<path d="M76.56 533.3C72.7467 533.3 69.4533 531.913 66.68 529.14C64.08 526.367 62.78 522.987 62.78 519C62.78 515.013 64.08 511.72 66.68 509.12C69.4533 506.347 72.7467 504.96 76.56 504.96C80.3733 504.96 83.6667 506.347 86.44 509.12C89.2133 511.72 90.6 515.013 90.6 519C90.6 522.987 89.2133 526.367 86.44 529.14C83.6667 531.913 80.3733 533.3 76.56 533.3Z" fill="black"/>
<path d="M245.109 469.34H130.709C131.749 483.553 137.209 495.08 147.089 503.92C156.969 512.587 169.449 516.92 184.529 516.92C193.022 516.92 200.822 515.447 207.929 512.5C215.036 509.38 221.189 504.873 226.389 498.98L236.789 510.94C230.722 518.22 223.096 523.767 213.909 527.58C204.896 531.393 194.929 533.3 184.009 533.3C169.969 533.3 157.489 530.353 146.569 524.46C135.822 518.393 127.416 510.073 121.349 499.5C115.282 488.927 112.249 476.967 112.249 463.62C112.249 450.273 115.109 438.313 120.829 427.74C126.722 417.167 134.696 408.933 144.749 403.04C154.976 397.147 166.416 394.2 179.069 394.2C191.722 394.2 203.076 397.147 213.129 403.04C223.182 408.933 231.069 417.167 236.789 427.74C242.509 438.14 245.369 450.1 245.369 463.62L245.109 469.34ZM179.069 410.06C165.896 410.06 154.802 414.307 145.789 422.8C136.949 431.12 131.922 442.04 130.709 455.56H227.689C226.476 442.04 221.362 431.12 212.349 422.8C203.509 414.307 192.416 410.06 179.069 410.06Z" fill="black"/>
<path d="M352.623 394.2C369.783 394.2 383.39 399.227 393.443 409.28C403.67 419.16 408.783 433.633 408.783 452.7V532H390.323V454.52C390.323 440.307 386.77 429.473 379.663 422.02C372.556 414.567 362.416 410.84 349.243 410.84C334.51 410.84 322.81 415.26 314.143 424.1C305.65 432.767 301.403 444.813 301.403 460.24V532H282.943V395.24H300.623V420.46C305.65 412.14 312.583 405.727 321.423 401.22C330.436 396.54 340.836 394.2 352.623 394.2Z" fill="black"/>
<path d="M571.281 395.24L510.441 532H491.461L430.881 395.24H450.121L501.341 511.72L553.081 395.24H571.281Z" fill="black"/>
<path d="M720.519 395.24V532H702.839V507.04C697.986 515.36 691.312 521.86 682.819 526.54C674.326 531.047 664.619 533.3 653.699 533.3C635.846 533.3 621.719 528.36 611.319 518.48C601.092 508.427 595.979 493.78 595.979 474.54V395.24H614.439V472.72C614.439 487.107 617.992 498.027 625.099 505.48C632.206 512.933 642.346 516.66 655.519 516.66C669.906 516.66 681.259 512.327 689.579 503.66C697.899 494.82 702.059 482.6 702.059 467V395.24H720.519Z" fill="black"/>
<path d="M808.88 533.3C797.787 533.3 787.127 531.74 776.9 528.62C766.847 525.327 758.96 521.253 753.24 516.4L761.56 501.84C767.28 506.347 774.474 510.073 783.14 513.02C791.807 515.793 800.82 517.18 810.18 517.18C822.66 517.18 831.847 515.273 837.74 511.46C843.807 507.473 846.84 501.927 846.84 494.82C846.84 489.793 845.194 485.893 841.9 483.12C838.607 480.173 834.447 478.007 829.42 476.62C824.394 475.06 817.72 473.587 809.4 472.2C798.307 470.12 789.38 468.04 782.62 465.96C775.86 463.707 770.054 459.98 765.2 454.78C760.52 449.58 758.18 442.387 758.18 433.2C758.18 421.76 762.947 412.4 772.48 405.12C782.014 397.84 795.274 394.2 812.26 394.2C821.1 394.2 829.94 395.413 838.78 397.84C847.62 400.093 854.9 403.127 860.62 406.94L852.56 421.76C841.294 413.96 827.86 410.06 812.26 410.06C800.474 410.06 791.547 412.14 785.48 416.3C779.587 420.46 776.64 425.92 776.64 432.68C776.64 437.88 778.287 442.04 781.58 445.16C785.047 448.28 789.294 450.62 794.32 452.18C799.347 453.567 806.28 455.04 815.12 456.6C826.04 458.68 834.794 460.76 841.38 462.84C847.967 464.92 853.6 468.473 858.28 473.5C862.96 478.527 865.3 485.46 865.3 494.3C865.3 506.26 860.274 515.793 850.22 522.9C840.34 529.833 826.56 533.3 808.88 533.3Z" fill="black"/>
<path d="M1018.51 469.34H904.107C905.147 483.553 910.607 495.08 920.487 503.92C930.367 512.587 942.847 516.92 957.927 516.92C966.421 516.92 974.221 515.447 981.327 512.5C988.434 509.38 994.587 504.873 999.787 498.98L1010.19 510.94C1004.12 518.22 996.494 523.767 987.307 527.58C978.294 531.393 968.327 533.3 957.408 533.3C943.368 533.3 930.887 530.353 919.967 524.46C909.221 518.393 900.814 510.073 894.747 499.5C888.681 488.927 885.647 476.967 885.647 463.62C885.647 450.273 888.507 438.313 894.227 427.74C900.121 417.167 908.094 408.933 918.147 403.04C928.374 397.147 939.814 394.2 952.467 394.2C965.121 394.2 976.474 397.147 986.527 403.04C996.581 408.933 1004.47 417.167 1010.19 427.74C1015.91 438.14 1018.77 450.1 1018.77 463.62L1018.51 469.34ZM952.467 410.06C939.294 410.06 928.201 414.307 919.187 422.8C910.347 431.12 905.321 442.04 904.107 455.56H1001.09C999.874 442.04 994.761 431.12 985.747 422.8C976.907 414.307 965.814 410.06 952.467 410.06Z" fill="black"/>
</svg>
